<?xml version="1.0" standalone="no"?>
<!DOCTYPE svg PUBLIC "-//W3C//DTD SVG 20010904//EN"
 "http://www.w3.org/TR/2001/REC-SVG-20010904/DTD/svg10.dtd">
<svg version="1.0" xmlns="http://www.w3.org/2000/svg"
 width="398.000000pt" height="398.000000pt" viewBox="0 0 398.000000 398.000000"
 preserveAspectRatio="xMidYMid meet">
<metadata>
Created by potrace 1.11, written by Peter Selinger 2001-2013
</metadata>
<g transform="translate(0.000000,398.000000) scale(0.100000,-0.100000)"
fill="#000000" stroke="none">
<path d="M1839 3086 c-58 -16 -149 -65 -215 -114 -44 -34 -59 -39 -125 -45
-194 -16 -399 -194 -500 -435 -38 -92 -48 -206 -29 -347 6 -49 15 -146 20
-214 8 -114 8 -126 -10 -148 -53 -68 -24 -285 61 -455 32 -64 39 -69 89 -78
35 -5 35 -6 51 -81 35 -168 65 -220 176 -311 l73 -60 -31 -21 c-18 -12 -41
-34 -52 -49 -24 -33 -34 -123 -18 -169 6 -18 9 -34 7 -37 -3 -2 -51 -13 -108
-24 -95 -18 -178 -51 -178 -70 0 -12 203 -111 300 -146 96 -35 171 -55 286
-77 108 -21 114 -20 114 11 0 16 5 24 13 22 17 -6 21 -39 5 -49 -9 -6 -2 -9
20 -9 30 0 32 2 32 38 l0 37 145 0 145 0 0 -37 c0 -34 3 -38 25 -38 23 0 24 2
15 21 -13 23 -6 54 10 44 5 -3 10 -17 10 -31 0 -29 7 -29 114 -9 115 22 190
42 286 77 92 33 310 138 310 149 0 17 -96 51 -199 71 -74 15 -110 26 -107 34
2 6 7 31 11 56 9 63 -10 125 -52 167 l-35 35 33 26 c78 58 153 138 175 185 20
43 31 83 60 223 3 16 11 22 30 22 44 0 65 20 100 94 76 166 101 353 57 428
-22 37 -22 39 -11 260 15 293 14 335 -11 411 -30 88 -150 263 -265 385 -94
100 -259 199 -377 227 -35 8 -102 15 -149 15 -47 0 -107 7 -134 15 -58 18
-104 18 -167 1z m168 -58 c15 -6 75 -13 133 -14 170 -3 310 -63 453 -194 84
-78 216 -251 265 -349 36 -72 37 -79 37 -180 0 -59 -4 -158 -8 -222 -8 -108
-10 -116 -28 -112 -15 4 -19 0 -19 -21 0 -30 26 -36 33 -8 3 9 5 -5 6 -31 1
-30 -6 -60 -16 -78 -20 -33 -33 -37 -33 -10 0 20 -21 33 -37 23 -5 -4 -13 -41
-16 -82 -3 -41 -9 -86 -14 -99 -9 -22 -12 -18 -45 51 -45 95 -76 129 -223 248
-66 54 -140 119 -165 144 -71 74 -123 56 -64 -21 l26 -35 -39 21 c-22 11 -61
36 -87 55 -50 39 -66 44 -66 22 0 -33 124 -113 210 -136 44 -12 80 -35 80 -52
0 -4 -24 -8 -54 -8 -151 0 -309 102 -471 303 -25 31 -50 57 -54 57 -5 0 -14
-7 -22 -16 -10 -13 -10 -21 5 -47 31 -57 -131 118 -180 194 -31 47 -51 69 -62
67 -25 -5 -26 -34 -4 -76 10 -20 24 -58 31 -85 17 -72 57 -155 102 -215 l41
-53 -34 17 c-18 9 -68 52 -111 94 -57 57 -85 95 -107 144 -30 66 -47 79 -70
51 -9 -11 -7 -26 15 -72 14 -32 40 -75 56 -96 17 -21 29 -40 27 -42 -2 -2 -22
12 -46 32 -63 52 -90 106 -105 209 -11 77 -16 89 -33 89 -17 0 -20 -10 -26
-85 -6 -79 4 -226 18 -253 3 -7 -4 -1 -15 13 -28 34 -57 97 -65 143 -8 42 -30
58 -51 36 -9 -11 -11 -30 -5 -78 7 -58 6 -66 -12 -80 -19 -16 -19 -19 -4 -76
8 -33 24 -86 35 -117 l20 -58 -26 -57 c-14 -32 -27 -83 -30 -113 -9 -106 -12
-110 -37 -48 -12 30 -32 69 -44 86 -17 23 -22 44 -22 92 0 34 -7 110 -16 169
-25 158 -23 301 4 376 58 155 198 323 323 383 72 36 154 54 200 45 25 -5 36 0
62 25 42 39 140 101 197 123 52 21 146 24 187 7z m-187 -890 c30 -20 74 -46
97 -59 23 -13 75 -50 116 -81 41 -31 98 -67 128 -78 64 -25 207 -37 262 -22
36 10 40 9 95 -37 75 -62 116 -111 147 -170 27 -53 65 -186 65 -225 0 -14 7
-31 15 -40 14 -14 14 -21 0 -75 -8 -32 -24 -104 -35 -158 -31 -150 -46 -186
-99 -240 -99 -100 -407 -318 -505 -356 -73 -29 -201 -28 -278 2 -72 28 -205
114 -364 237 -184 141 -197 162 -244 379 -16 73 -33 150 -39 169 -5 20 -6 38
-2 41 5 2 11 81 15 176 8 170 19 228 59 305 13 25 12 34 -9 98 -28 82 -28 76
-9 76 10 0 15 10 15 26 0 27 0 26 44 -14 24 -22 52 -45 64 -51 l21 -11 -25
-44 c-31 -55 -44 -146 -22 -146 18 0 38 22 68 77 26 47 61 68 144 85 60 13
155 -2 176 -27 17 -21 77 -46 94 -39 9 3 16 14 16 23 0 14 7 16 35 13 51 -6
48 27 -5 62 -68 45 -121 98 -162 160 -21 33 -38 64 -38 69 0 5 24 -12 53 -40
29 -27 77 -66 107 -85z m-362 -13 c43 -28 50 -36 35 -41 -10 -3 -33 -12 -50
-20 l-33 -14 -24 48 c-13 27 -27 66 -31 88 l-7 39 28 -32 c16 -18 53 -48 82
-68z m-402 -412 c20 -21 57 -150 51 -181 -3 -15 5 -69 18 -121 13 -52 22 -99
19 -103 -22 -35 -74 48 -115 182 -28 91 -33 236 -9 265 14 17 15 17 18 -5 2
-13 10 -30 18 -37z m1868 -56 c-1 -45 -9 -111 -19 -147 -24 -92 -80 -210 -99
-210 -20 0 -20 7 5 120 11 52 18 107 15 122 -7 33 30 158 50 174 8 7 14 16 13
20 -1 5 -1 16 0 24 1 12 4 11 19 -3 14 -14 17 -34 16 -100z m-1084 -1114 c69
-23 203 -20 272 4 l56 21 4 -35 c3 -22 -4 -52 -18 -81 -12 -26 -27 -72 -33
-103 -12 -55 -13 -57 -49 -63 -57 -9 -183 -7 -223 4 -34 10 -37 13 -43 59 -4
27 -19 74 -35 105 -15 31 -24 59 -20 62 5 3 9 17 9 31 0 20 4 24 18 18 9 -4
37 -14 62 -22z"/>
<path d="M1799 2977 c-80 -34 -144 -79 -144 -102 0 -11 -6 -24 -12 -28 -7 -4
-13 -15 -13 -24 0 -11 6 -14 23 -8 12 4 42 10 67 14 30 4 45 11 45 21 0 11
-11 15 -44 14 l-43 -1 23 18 c78 60 217 107 251 85 13 -8 21 -7 30 2 18 18 3
25 -65 29 -48 2 -75 -2 -118 -20z"/>
<path d="M2200 2917 c0 -7 24 -23 53 -35 177 -73 372 -244 444 -388 22 -44 46
-111 53 -147 7 -37 16 -67 21 -67 35 0 14 115 -42 229 -72 146 -244 303 -429
390 -70 33 -100 39 -100 18z"/>
<path d="M1405 2819 c-67 -26 -110 -62 -101 -84 6 -16 8 -16 29 -1 60 44 86
57 140 68 34 7 57 17 57 25 0 19 -66 15 -125 -8z"/>
<path d="M2000 2677 c0 -12 15 -15 71 -16 108 -2 200 -32 243 -80 21 -24 46
-28 46 -8 0 21 -51 64 -105 88 -64 30 -255 41 -255 16z"/>
<path d="M2410 2670 c0 -6 24 -39 53 -73 153 -181 237 -350 237 -480 0 -27 4
-37 13 -34 8 3 12 27 11 78 -2 123 -75 271 -221 444 -55 65 -93 92 -93 65z"/>
<path d="M1760 2645 c0 -24 49 -62 110 -86 32 -12 108 -26 186 -34 75 -8 154
-23 186 -35 102 -38 181 -107 212 -185 2 -6 8 -6 15 1 33 31 -43 132 -136 181
-81 43 -150 61 -279 72 -121 11 -195 34 -245 75 -35 30 -49 33 -49 11z"/>
<path d="M1080 2395 c-6 -30 -10 -67 -8 -82 4 -36 33 -38 34 -3 0 14 4 51 9
83 6 48 5 57 -8 57 -11 0 -19 -17 -27 -55z"/>
<path d="M2290 2309 c0 -41 243 -299 282 -299 28 0 21 24 -14 50 -63 46 -121
106 -180 183 -53 69 -88 96 -88 66z"/>
<path d="M1130 1990 c0 -11 7 -23 15 -27 21 -8 28 1 20 26 -8 27 -35 27 -35 1z"/>
<path d="M1076 1874 c-10 -26 -7 -44 8 -44 8 0 17 9 21 20 11 34 -16 57 -29
24z"/>
<path d="M1505 1786 c-5 -3 -23 -7 -38 -11 -33 -7 -80 -54 -108 -108 -19 -35
-19 -38 -2 -44 10 -3 31 -15 47 -26 22 -15 56 -22 156 -30 111 -9 133 -8 169
6 23 10 53 17 67 17 13 0 27 6 30 14 8 20 -90 141 -129 159 -30 14 -170 31
-192 23z m181 -61 c12 -7 35 -31 53 -53 l31 -40 -49 -21 c-61 -26 -76 -27 -66
-3 19 43 17 73 -6 98 -30 32 -72 32 -105 -2 -22 -21 -25 -31 -19 -61 l6 -36
-46 5 c-42 5 -85 30 -85 49 0 19 63 78 88 82 46 9 176 -4 198 -18z m-46 -25
c23 -23 26 -58 7 -84 -11 -15 -21 -17 -55 -11 -42 7 -62 26 -62 59 0 24 37 56
65 56 14 0 34 -9 45 -20z"/>
<path d="M1570 1671 c-7 -15 -6 -23 6 -35 19 -19 26 -20 42 -4 17 17 15 38 -3
38 -8 0 -15 5 -15 10 0 17 -19 11 -30 -9z"/>
<path d="M2315 1783 c-81 -9 -103 -22 -164 -97 -62 -77 -64 -96 -14 -96 13 0
38 -7 55 -16 26 -14 51 -15 152 -10 105 6 129 11 184 37 l63 30 -22 39 c-56
99 -123 129 -254 113z m129 -42 c16 -3 42 -22 59 -44 l31 -38 -21 -21 c-14
-14 -39 -22 -73 -26 -51 -5 -52 -4 -41 16 37 69 -58 134 -116 80 -24 -23 -32
-81 -12 -94 7 -4 7 -10 1 -16 -7 -7 -28 -2 -62 14 l-53 23 45 49 c36 40 52 50
89 56 55 9 115 10 153 1z m-70 -36 c43 -43 26 -90 -36 -100 -47 -8 -68 8 -68
54 0 52 68 82 104 46z"/>
<path d="M2311 1677 c-15 -15 -14 -32 3 -46 17 -15 46 -4 46 18 0 23 -34 43
-49 28z"/>
<path d="M2020 1531 c0 -6 11 -54 25 -107 34 -132 33 -159 -6 -180 -31 -16
-98 -15 -161 1 -22 6 -28 4 -28 -9 0 -42 137 -61 200 -27 52 27 64 59 51 134
-19 109 -46 192 -64 195 -10 2 -17 -1 -17 -7z"/>
<path d="M1733 1053 c-26 -17 -34 -79 -10 -70 8 3 21 -7 30 -23 59 -100 368
-105 432 -7 10 15 22 24 31 20 10 -4 14 4 14 30 0 26 -6 39 -25 51 -24 16 -25
15 -25 -3 0 -17 -10 -19 -107 -22 -60 -2 -150 -2 -202 0 -82 3 -94 5 -98 22
-6 23 -11 23 -40 2z m382 -63 c38 -1 45 -4 30 -10 -23 -10 -325 -13 -349 -4
-9 3 -16 9 -16 13 0 5 157 6 335 1z m-33 -58 c-41 -15 -206 -12 -234 3 -11 7
31 10 127 10 132 0 141 -1 107 -13z"/>
<path d="M1850 847 c0 -35 148 -51 215 -23 39 17 50 44 13 30 -31 -11 -188
-11 -210 0 -13 6 -18 4 -18 -7z"/>
</g>
</svg>
